<svg width="246" height="65" viewBox="0 0 246 65" fill="none" xmlns="http://www.w3.org/2000/svg">
<g filter="url(#filter0_d_128_3931)">
<rect x="8" y="6" width="230" height="49" rx="24.5" fill="white" shape-rendering="crispEdges"/>
<rect x="8.25" y="6.25" width="229.5" height="48.5" rx="24.25" stroke="#CBCBCB" stroke-width="0.5" shape-rendering="crispEdges"/>
<path d="M191 20H209.072M191 27H220M191 34H214.957M191 41H220" stroke="#212121" stroke-width="3"/>
<path d="M39.448 37.133C38.5233 37.133 37.6493 36.9683 36.826 36.639C36.0153 36.3097 35.2997 35.8473 34.679 35.252C34.0583 34.644 33.5707 33.9283 33.216 33.105C32.874 32.2817 32.703 31.376 32.703 30.388C32.703 29.4 32.874 28.5007 33.216 27.69C33.5707 26.8667 34.0583 26.1573 34.679 25.562C35.2997 24.954 36.0153 24.4853 36.826 24.156C37.6493 23.8267 38.5233 23.662 39.448 23.662C40.398 23.662 41.272 23.8267 42.07 24.156C42.8807 24.4727 43.5773 24.9413 44.16 25.562C44.7427 26.1827 45.1733 26.9427 45.452 27.842L43.438 28.469C43.1087 27.5697 42.6083 26.8603 41.937 26.341C41.2657 25.8217 40.455 25.562 39.505 25.562C38.631 25.562 37.8457 25.7583 37.149 26.151C36.465 26.5437 35.9203 27.101 35.515 27.823C35.1223 28.545 34.926 29.4 34.926 30.388C34.926 31.376 35.116 32.2373 35.496 32.972C35.8887 33.694 36.427 34.2577 37.111 34.663C37.795 35.0557 38.574 35.252 39.448 35.252C40.322 35.252 41.1327 34.9987 41.88 34.492C42.64 33.9727 43.1973 33.2887 43.552 32.44L45.604 32.915C45.3 33.827 44.8313 34.5997 44.198 35.233C43.5647 35.8537 42.8363 36.3287 42.013 36.658C41.1897 36.9747 40.3347 37.133 39.448 37.133ZM47.8791 37V26.531H50.0451V37H47.8791ZM49.4181 31.718L50.0451 28.83C50.2984 28.0827 50.7101 27.4937 51.2801 27.063C51.8628 26.6197 52.5214 26.398 53.2561 26.398V28.64C53.1548 28.6147 53.0534 28.602 52.9521 28.602C52.8634 28.5893 52.7684 28.583 52.6671 28.583C52.1478 28.583 51.6918 28.7033 51.2991 28.944C50.9064 29.172 50.5961 29.5203 50.3681 29.989C50.1528 30.445 50.0451 31.0213 50.0451 31.718H49.4181ZM59.9238 37.133C59.0751 37.133 58.3024 37 57.6058 36.734C56.9218 36.468 56.3328 36.0943 55.8388 35.613C55.3574 35.1317 54.9838 34.5743 54.7178 33.941C54.4644 33.295 54.3378 32.592 54.3378 31.832C54.3378 31.0087 54.4834 30.2677 54.7748 29.609C55.0788 28.9377 55.4841 28.3613 55.9908 27.88C56.5101 27.3987 57.1054 27.0313 57.7768 26.778C58.4481 26.5247 59.1511 26.398 59.8858 26.398C60.5444 26.398 61.1461 26.4867 61.6908 26.664C62.2354 26.8413 62.7041 27.0883 63.0968 27.405C63.5021 27.7217 63.8124 28.089 64.0278 28.507C64.2431 28.925 64.3508 29.3747 64.3508 29.856C64.3508 30.5273 64.1544 31.0847 63.7618 31.528C63.3691 31.9713 62.8561 32.3197 62.2228 32.573C61.5894 32.8263 60.8928 32.9973 60.1328 33.086C59.3728 33.1747 58.6191 33.2 57.8718 33.162C57.7451 33.1493 57.5868 33.143 57.3968 33.143C57.2068 33.1303 57.0358 33.124 56.8838 33.124C56.7444 33.1113 56.6684 33.105 56.6558 33.105C56.7444 33.523 56.9408 33.903 57.2448 34.245C57.5614 34.5743 57.9541 34.834 58.4228 35.024C58.8914 35.214 59.3918 35.309 59.9238 35.309C60.3544 35.309 60.7788 35.233 61.1968 35.081C61.6274 34.929 62.0201 34.72 62.3748 34.454C62.7294 34.188 63.0271 33.884 63.2678 33.542L64.8828 34.701C64.4648 35.2583 63.9898 35.7207 63.4578 36.088C62.9384 36.4427 62.3811 36.7087 61.7858 36.886C61.1904 37.0507 60.5698 37.133 59.9238 37.133ZM58.0618 31.433C58.5304 31.433 59.0054 31.414 59.4868 31.376C59.9681 31.3253 60.4114 31.243 60.8168 31.129C61.2348 31.0023 61.5704 30.8313 61.8238 30.616C62.0771 30.4007 62.2038 30.122 62.2038 29.78C62.2038 29.4887 62.1088 29.229 61.9188 29.001C61.7414 28.7603 61.4881 28.5703 61.1588 28.431C60.8294 28.2917 60.4431 28.222 59.9998 28.222C59.3411 28.222 58.7521 28.3677 58.2328 28.659C57.7134 28.9503 57.3018 29.3367 56.9978 29.818C56.7064 30.2993 56.5481 30.8187 56.5228 31.376C56.7001 31.3887 56.9218 31.4013 57.1878 31.414C57.4538 31.4267 57.7451 31.433 58.0618 31.433ZM71.0034 37.133C70.0914 37.133 69.2618 36.9113 68.5144 36.468C67.7798 36.012 67.1908 35.385 66.7474 34.587C66.3168 33.7763 66.1014 32.8327 66.1014 31.756C66.1014 30.6793 66.3168 29.742 66.7474 28.944C67.1908 28.1333 67.7798 27.5063 68.5144 27.063C69.2618 26.6197 70.0914 26.398 71.0034 26.398C71.8648 26.398 72.6184 26.6133 73.2644 27.044C73.9104 27.462 74.3791 28.0447 74.6704 28.792V26.531H76.8554V37H75.8864C75.5318 37 75.2404 36.886 75.0124 36.658C74.7844 36.43 74.6704 36.1387 74.6704 35.784V34.72C74.3791 35.4673 73.9104 36.0563 73.2644 36.487C72.6184 36.9177 71.8648 37.133 71.0034 37.133ZM71.4974 35.252C72.0421 35.252 72.5551 35.119 73.0364 34.853C73.5178 34.587 73.9104 34.1943 74.2144 33.675C74.5184 33.143 74.6704 32.5033 74.6704 31.756C74.6704 30.996 74.5184 30.3627 74.2144 29.856C73.9104 29.3367 73.5178 28.944 73.0364 28.678C72.5551 28.412 72.0421 28.279 71.4974 28.279C70.9654 28.279 70.4524 28.412 69.9584 28.678C69.4771 28.944 69.0844 29.3367 68.7804 29.856C68.4764 30.3627 68.3244 30.996 68.3244 31.756C68.3244 32.5033 68.4764 33.143 68.7804 33.675C69.0844 34.1943 69.4771 34.587 69.9584 34.853C70.4524 35.119 70.9654 35.252 71.4974 35.252ZM83.2154 37.133C82.4174 37.133 81.7524 36.8607 81.2204 36.316C80.6884 35.7713 80.4224 35.0303 80.4224 34.093V28.298H78.8074V26.531H85.1534V28.298H82.6074V34.226C82.6074 34.5807 82.6961 34.834 82.8734 34.986C83.0634 35.138 83.2661 35.214 83.4814 35.214C83.6714 35.214 83.8424 35.1823 83.9944 35.119C84.1464 35.0557 84.2921 34.9543 84.4314 34.815L85.5524 36.164C85.1977 36.506 84.8367 36.753 84.4694 36.905C84.1021 37.057 83.6841 37.133 83.2154 37.133ZM79.5864 27.348V26.531C79.8524 26.531 80.0551 26.455 80.1944 26.303C80.3464 26.151 80.4224 25.942 80.4224 25.676V23.928H82.6074V25.315C82.6074 25.4923 82.5631 25.6697 82.4744 25.847C82.3857 26.0117 82.2591 26.1573 82.0944 26.284C81.9424 26.398 81.7714 26.4803 81.5814 26.531L79.5864 27.348ZM92.2275 37.133C91.3788 37.133 90.6061 37 89.9095 36.734C89.2255 36.468 88.6365 36.0943 88.1425 35.613C87.6611 35.1317 87.2875 34.5743 87.0215 33.941C86.7681 33.295 86.6415 32.592 86.6415 31.832C86.6415 31.0087 86.7871 30.2677 87.0785 29.609C87.3825 28.9377 87.7878 28.3613 88.2945 27.88C88.8138 27.3987 89.4091 27.0313 90.0805 26.778C90.7518 26.5247 91.4548 26.398 92.1895 26.398C92.8481 26.398 93.4498 26.4867 93.9945 26.664C94.5391 26.8413 95.0078 27.0883 95.4005 27.405C95.8058 27.7217 96.1161 28.089 96.3315 28.507C96.5468 28.925 96.6545 29.3747 96.6545 29.856C96.6545 30.5273 96.4581 31.0847 96.0655 31.528C95.6728 31.9713 95.1598 32.3197 94.5265 32.573C93.8931 32.8263 93.1965 32.9973 92.4365 33.086C91.6765 33.1747 90.9228 33.2 90.1755 33.162C90.0488 33.1493 89.8905 33.143 89.7005 33.143C89.5105 33.1303 89.3395 33.124 89.1875 33.124C89.0481 33.1113 88.9721 33.105 88.9595 33.105C89.0481 33.523 89.2445 33.903 89.5485 34.245C89.8651 34.5743 90.2578 34.834 90.7265 35.024C91.1951 35.214 91.6955 35.309 92.2275 35.309C92.6581 35.309 93.0825 35.233 93.5005 35.081C93.9311 34.929 94.3238 34.72 94.6785 34.454C95.0331 34.188 95.3308 33.884 95.5715 33.542L97.1865 34.701C96.7685 35.2583 96.2935 35.7207 95.7615 36.088C95.2421 36.4427 94.6848 36.7087 94.0895 36.886C93.4941 37.0507 92.8735 37.133 92.2275 37.133ZM90.3655 31.433C90.8341 31.433 91.3091 31.414 91.7905 31.376C92.2718 31.3253 92.7151 31.243 93.1205 31.129C93.5385 31.0023 93.8741 30.8313 94.1275 30.616C94.3808 30.4007 94.5075 30.122 94.5075 29.78C94.5075 29.4887 94.4125 29.229 94.2225 29.001C94.0451 28.7603 93.7918 28.5703 93.4625 28.431C93.1331 28.2917 92.7468 28.222 92.3035 28.222C91.6448 28.222 91.0558 28.3677 90.5365 28.659C90.0171 28.9503 89.6055 29.3367 89.3015 29.818C89.0101 30.2993 88.8518 30.8187 88.8265 31.376C89.0038 31.3887 89.2255 31.4013 89.4915 31.414C89.7575 31.4267 90.0488 31.433 90.3655 31.433ZM111.131 37.152V26.531H113.297V37.152C113.297 37.8867 113.183 38.5517 112.955 39.147C112.727 39.755 112.391 40.2807 111.948 40.724C111.504 41.1673 110.966 41.5093 110.333 41.75C109.699 41.9907 108.971 42.111 108.148 42.111C107.312 42.111 106.571 41.9717 105.925 41.693C105.279 41.427 104.728 41.0217 104.272 40.477C103.816 39.945 103.461 39.2863 103.208 38.501L105.184 37.798C105.45 38.558 105.817 39.1597 106.286 39.603C106.767 40.0463 107.375 40.268 108.11 40.268C109.009 40.268 109.737 39.9957 110.295 39.451C110.852 38.919 111.131 38.1527 111.131 37.152ZM111.587 32.345C111.549 33.3203 111.403 34.112 111.15 34.72C110.909 35.328 110.599 35.7903 110.219 36.107C109.839 36.4237 109.44 36.639 109.022 36.753C108.604 36.867 108.205 36.924 107.825 36.924C107.014 36.924 106.298 36.7593 105.678 36.43C105.057 36.088 104.576 35.5877 104.234 34.929C103.892 34.2703 103.721 33.4533 103.721 32.478V26.531H105.868V32.022C105.868 32.9847 106.108 33.732 106.59 34.264C107.071 34.7833 107.704 35.043 108.49 35.043C109.022 35.043 109.484 34.9037 109.877 34.625C110.282 34.3463 110.592 33.9663 110.808 33.485C111.023 33.0037 111.131 32.4527 111.131 31.832L111.587 32.345ZM120.404 37.133C119.416 37.133 118.523 36.9113 117.725 36.468C116.94 36.0247 116.313 35.3977 115.844 34.587C115.388 33.7763 115.16 32.8327 115.16 31.756C115.16 30.6667 115.395 29.723 115.863 28.925C116.345 28.127 116.991 27.5063 117.801 27.063C118.612 26.6197 119.511 26.398 120.499 26.398C121.5 26.398 122.399 26.6197 123.197 27.063C124.008 27.5063 124.648 28.127 125.116 28.925C125.598 29.723 125.838 30.6667 125.838 31.756C125.838 32.8327 125.591 33.7763 125.097 34.587C124.616 35.3977 123.964 36.0247 123.14 36.468C122.317 36.9113 121.405 37.133 120.404 37.133ZM120.404 35.252C120.949 35.252 121.462 35.1253 121.943 34.872C122.437 34.606 122.836 34.2133 123.14 33.694C123.457 33.1747 123.615 32.5287 123.615 31.756C123.615 30.9707 123.463 30.3247 123.159 29.818C122.855 29.2987 122.463 28.9123 121.981 28.659C121.513 28.4057 121.006 28.279 120.461 28.279C119.917 28.279 119.41 28.4057 118.941 28.659C118.473 28.9123 118.093 29.2987 117.801 29.818C117.51 30.3247 117.364 30.9707 117.364 31.756C117.364 32.5287 117.504 33.1747 117.782 33.694C118.061 34.2133 118.428 34.606 118.884 34.872C119.353 35.1253 119.86 35.252 120.404 35.252ZM135.295 35.784V26.531H137.461V37H136.511C136.156 37 135.865 36.886 135.637 36.658C135.409 36.43 135.295 36.1387 135.295 35.784ZM131.989 37.133C131.178 37.133 130.462 36.9683 129.842 36.639C129.221 36.297 128.74 35.7967 128.398 35.138C128.056 34.4793 127.885 33.6623 127.885 32.687V26.531H130.032V32.231C130.032 33.1937 130.272 33.941 130.754 34.473C131.235 34.9923 131.868 35.252 132.654 35.252C133.186 35.252 133.648 35.1127 134.041 34.834C134.446 34.5553 134.756 34.1753 134.972 33.694C135.187 33.2127 135.295 32.6617 135.295 32.041L135.675 32.592C135.637 33.6307 135.44 34.4857 135.086 35.157C134.744 35.8283 134.3 36.3287 133.756 36.658C133.211 36.9747 132.622 37.133 131.989 37.133ZM140.319 37V26.531H142.485V37H140.319ZM141.858 31.718L142.485 28.83C142.738 28.0827 143.15 27.4937 143.72 27.063C144.302 26.6197 144.961 26.398 145.696 26.398V28.64C145.594 28.6147 145.493 28.602 145.392 28.602C145.303 28.5893 145.208 28.583 145.107 28.583C144.587 28.583 144.131 28.7033 143.739 28.944C143.346 29.172 143.036 29.5203 142.808 29.989C142.592 30.445 142.485 31.0213 142.485 31.718H141.858ZM152.62 34.606V22.94H154.786V34.416C154.786 34.6947 154.869 34.91 155.033 35.062C155.198 35.214 155.394 35.29 155.622 35.29C155.774 35.29 155.907 35.2647 156.021 35.214L156.477 36.81C156.11 37.0253 155.673 37.133 155.166 37.133C154.761 37.133 154.362 37.0507 153.969 36.886C153.577 36.7087 153.254 36.4363 153 36.069C152.747 35.689 152.62 35.2013 152.62 34.606ZM158.336 37V26.531H160.502V37H158.336ZM159.438 25.144C158.982 25.144 158.596 24.9983 158.279 24.707C157.963 24.4157 157.804 24.0547 157.804 23.624C157.804 23.1933 157.963 22.8323 158.279 22.541C158.596 22.237 158.982 22.085 159.438 22.085C159.882 22.085 160.262 22.237 160.578 22.541C160.908 22.8323 161.072 23.1933 161.072 23.624C161.072 24.0547 160.908 24.4157 160.578 24.707C160.262 24.9983 159.882 25.144 159.438 25.144ZM167.085 37.133C166.351 37.133 165.692 37.0063 165.109 36.753C164.527 36.487 164.045 36.1323 163.665 35.689C163.285 35.2457 163.026 34.7643 162.886 34.245L164.957 33.789C165.084 34.2577 165.337 34.6313 165.717 34.91C166.11 35.176 166.553 35.309 167.047 35.309C167.681 35.309 168.156 35.195 168.472 34.967C168.802 34.7263 168.966 34.4287 168.966 34.074C168.966 33.732 168.821 33.466 168.529 33.276C168.238 33.086 167.858 32.9277 167.389 32.801C166.933 32.6743 166.446 32.5413 165.926 32.402C165.407 32.2627 164.913 32.079 164.444 31.851C163.988 31.623 163.615 31.319 163.323 30.939C163.032 30.5463 162.886 30.0333 162.886 29.4C162.886 28.8427 163.051 28.336 163.38 27.88C163.71 27.424 164.172 27.063 164.767 26.797C165.375 26.531 166.091 26.398 166.914 26.398C167.624 26.398 168.251 26.512 168.795 26.74C169.34 26.968 169.79 27.291 170.144 27.709C170.499 28.1143 170.74 28.602 170.866 29.172L168.795 29.704C168.669 29.2227 168.447 28.8553 168.13 28.602C167.814 28.3487 167.383 28.222 166.838 28.222C166.256 28.222 165.812 28.3297 165.508 28.545C165.217 28.7477 165.071 29.0263 165.071 29.381C165.071 29.723 165.217 29.9953 165.508 30.198C165.8 30.388 166.173 30.5527 166.629 30.692C167.085 30.8187 167.567 30.9517 168.073 31.091C168.593 31.2303 169.08 31.414 169.536 31.642C169.992 31.8573 170.366 32.1613 170.657 32.554C170.949 32.934 171.094 33.4343 171.094 34.055C171.094 34.5997 170.93 35.1063 170.6 35.575C170.284 36.0437 169.821 36.4237 169.213 36.715C168.618 36.9937 167.909 37.133 167.085 37.133ZM176.954 37.133C176.156 37.133 175.491 36.8607 174.959 36.316C174.427 35.7713 174.161 35.0303 174.161 34.093V28.298H172.546V26.531H178.892V28.298H176.346V34.226C176.346 34.5807 176.434 34.834 176.612 34.986C176.802 35.138 177.004 35.214 177.22 35.214C177.41 35.214 177.581 35.1823 177.733 35.119C177.885 35.0557 178.03 34.9543 178.17 34.815L179.291 36.164C178.936 36.506 178.575 36.753 178.208 36.905C177.84 37.057 177.422 37.133 176.954 37.133ZM173.325 27.348V26.531C173.591 26.531 173.793 26.455 173.933 26.303C174.085 26.151 174.161 25.942 174.161 25.676V23.928H176.346V25.315C176.346 25.4923 176.301 25.6697 176.213 25.847C176.124 26.0117 175.997 26.1573 175.833 26.284C175.681 26.398 175.51 26.4803 175.32 26.531L173.325 27.348Z" fill="black"/>
</g>
<defs>
<filter id="filter0_d_128_3931" x="0" y="0" width="246" height="65" filterUnits="userSpaceOnUse" color-interpolation-filters="sRGB">
<feFlood flood-opacity="0" result="BackgroundImageFix"/>
<feColorMatrix in="SourceAlpha" type="matrix" values="0 0 0 0 0 0 0 0 0 0 0 0 0 0 0 0 0 0 127 0" result="hardAlpha"/>
<feOffset dy="2"/>
<feGaussianBlur stdDeviation="4"/>
<feComposite in2="hardAlpha" operator="out"/>
<feColorMatrix type="matrix" values="0 0 0 0 0 0 0 0 0 0 0 0 0 0 0 0 0 0 0.1 0"/>
<feBlend mode="normal" in2="BackgroundImageFix" result="effect1_dropShadow_128_3931"/>
<feBlend mode="normal" in="SourceGraphic" in2="effect1_dropShadow_128_3931" result="shape"/>
</filter>
</defs>
</svg>
