<svg width="400" height="99" viewBox="0 0 400 99" fill="none" xmlns="http://www.w3.org/2000/svg">
<path d="M19.8443 12.9301L19.6467 13.3548L19.4491 12.9301L11.9761 16.4635V40.0495H13.113V17.1932L19.6467 14.1028L26.1817 17.1932V40.0495H27.3173V16.4635L19.8443 12.9301Z" fill="#EAB431"/>
<path d="M19.0441 13.5728C18.7171 12.0487 16.7521 11.5003 15.0195 11.0166C14.4156 10.8479 13.845 10.6876 13.3677 10.4922C11.4083 9.69218 9.18727 8.78529 7.94038 6.60877C7.12767 5.19009 7.12906 3.35101 7.94177 1.9253C8.67515 0.641605 9.9137 -0.0740607 11.3791 0.00608263C14.0663 0.141061 16.2303 2.48068 17.992 7.15712C18.4791 8.45066 18.937 9.7681 19.3517 11.0715C19.424 11.2979 19.5354 11.5467 19.6495 11.804C19.8833 12.3313 20.124 12.8782 20.1644 13.4055L19.0427 13.5714L19.0441 13.5728ZM11.1745 1.14918C9.88865 1.14918 9.2151 1.99561 8.92703 2.50037C8.31194 3.57598 8.31055 4.96372 8.92425 6.0337C9.97632 7.86997 11.9176 8.66156 13.7949 9.42925C14.211 9.59938 14.751 9.74982 15.3229 9.91011C16.2275 10.1618 17.235 10.4444 18.1006 10.8943C17.7374 9.78357 17.3449 8.66719 16.9316 7.56627C15.348 3.36085 13.5138 1.26307 11.3234 1.15199L11.1759 1.14777L11.1745 1.14918Z" fill="#EAB431"/>
<path d="M20.4566 13.5731L19.335 13.4072C19.3753 12.8785 19.6175 12.3316 19.8513 11.8029C19.964 11.547 20.0753 11.2996 20.1477 11.0732C20.5679 9.75717 21.0258 8.43972 21.5073 7.15884C23.2691 2.4824 25.433 0.142782 28.1203 0.00780387C29.5787 -0.0681214 30.8256 0.643327 31.5589 1.92984C32.3717 3.35555 32.3717 5.19181 31.5589 6.61049C30.3093 8.78982 28.0896 9.6953 26.1316 10.4939C25.6543 10.6894 25.0837 10.8482 24.4798 11.017C22.7472 11.502 20.7822 12.0504 20.4538 13.5745L20.4566 13.5731ZM28.3248 1.14949L28.1773 1.15371C25.9883 1.26338 24.1541 3.36257 22.5705 7.56799C22.1599 8.65766 21.7675 9.77545 21.4015 10.8946C22.2671 10.4447 23.2746 10.1621 24.1792 9.91042C24.7511 9.75014 25.2911 9.59969 25.7072 9.42956C27.5831 8.66328 29.523 7.87169 30.5765 6.03402C31.1902 4.96544 31.1902 3.5777 30.5751 2.50209C30.2884 1.99592 29.6121 1.14949 28.3248 1.14949Z" fill="#EAB431"/>
<path d="M46.2515 13.0439H52.5808V40.0636H46.2515V13.0439Z" fill="#212121"/>
<path d="M75.3527 34.662V40.0636H61.4194V13.0439H67.6707V34.662H75.3527Z" fill="#212121"/>
<path d="M96.5148 34.662V40.0636H82.5815V13.0439H88.8328V34.662H96.5148Z" fill="#212121"/>
<path d="M109.995 18.0612V24.1969H120.223V29.0985H109.995V35.0435H120.223V40.0607H103.741V13.0439H120.223V18.0612H109.995Z" fill="#212121"/>
<path d="M138.746 13.0439C147.7 13.0439 152.795 19.645 152.795 26.5552C152.795 33.4655 147.741 40.0636 138.746 40.0636H128.828V13.0439H138.746ZM135.079 18.4484V34.6591H138.437C143.495 34.6591 146.428 30.7227 146.428 26.5523C146.428 22.3819 143.495 18.4484 138.437 18.4484H135.079Z" fill="#212121"/>
<path d="M158.942 26.5566C158.942 19.1464 164.268 12.3517 173.262 12.3517C182.256 12.3517 187.542 19.1464 187.542 26.5566C187.542 33.9668 182.216 40.7615 173.262 40.7615C164.309 40.7615 158.942 33.9668 158.942 26.5566ZM181.175 26.5566C181.175 22.1174 178.164 17.9903 173.262 17.9903C168.361 17.9903 165.349 22.1203 165.349 26.5566C165.349 30.9929 168.32 35.1258 173.262 35.1258C178.204 35.1258 181.175 30.9958 181.175 26.5566Z" fill="#212121"/>
<path d="M211.331 30.6447V13.0439H217.547V40.0636H211.021L201.293 22.6969V40.0636H195.042V13.0439H201.565L211.331 30.6447Z" fill="#212121"/>
<path d="M226.39 13.0439H232.719V40.0636H226.39V13.0439Z" fill="#212121"/>
<path d="M1.8 57.32H11.616V59.552H4.536V64.472H10.056V66.704H4.536V74H1.8V57.32ZM14.2236 74V60.776H16.9596V74H14.2236ZM15.6156 59.024C15.0396 59.024 14.5516 58.84 14.1516 58.472C13.7516 58.104 13.5516 57.648 13.5516 57.104C13.5516 56.56 13.7516 56.104 14.1516 55.736C14.5516 55.352 15.0396 55.16 15.6156 55.16C16.1756 55.16 16.6556 55.352 17.0556 55.736C17.4716 56.104 17.6796 56.56 17.6796 57.104C17.6796 57.648 17.4716 58.104 17.0556 58.472C16.6556 58.84 16.1756 59.024 15.6156 59.024ZM20.6906 74V60.776H23.4266V63.536C23.6346 62.976 23.9626 62.48 24.4106 62.048C24.8586 61.6 25.3706 61.248 25.9466 60.992C26.5386 60.736 27.1306 60.608 27.7226 60.608C28.7306 60.608 29.6106 60.832 30.3626 61.28C31.1306 61.712 31.7226 62.344 32.1386 63.176C32.5706 64.008 32.7866 65.016 32.7866 66.2V74H30.0746V66.848C30.0746 65.648 29.7706 64.704 29.1626 64.016C28.5546 63.328 27.7546 62.984 26.7626 62.984C26.1226 62.984 25.5466 63.16 25.0346 63.512C24.5386 63.864 24.1466 64.352 23.8586 64.976C23.5706 65.584 23.4266 66.288 23.4266 67.088V74H20.6906ZM41.5566 74.168C40.4046 74.168 39.3566 73.888 38.4126 73.328C37.4846 72.752 36.7406 71.96 36.1806 70.952C35.6366 69.928 35.3646 68.736 35.3646 67.376C35.3646 66.016 35.6366 64.832 36.1806 63.824C36.7406 62.8 37.4846 62.008 38.4126 61.448C39.3566 60.888 40.4046 60.608 41.5566 60.608C42.6446 60.608 43.5966 60.88 44.4126 61.424C45.2286 61.952 45.8206 62.688 46.1886 63.632V56.24H48.9486V74H47.7246C47.2766 74 46.9086 73.856 46.6206 73.568C46.3326 73.28 46.1886 72.912 46.1886 72.464V71.12C45.8206 72.064 45.2286 72.808 44.4126 73.352C43.5966 73.896 42.6446 74.168 41.5566 74.168ZM42.1806 71.792C42.8686 71.792 43.5166 71.624 44.1246 71.288C44.7326 70.952 45.2286 70.456 45.6126 69.8C45.9966 69.128 46.1886 68.32 46.1886 67.376C46.1886 66.416 45.9966 65.616 45.6126 64.976C45.2286 64.32 44.7326 63.824 44.1246 63.488C43.5166 63.152 42.8686 62.984 42.1806 62.984C41.5086 62.984 40.8606 63.152 40.2366 63.488C39.6286 63.824 39.1326 64.32 38.7486 64.976C38.3646 65.616 38.1726 66.416 38.1726 67.376C38.1726 68.32 38.3646 69.128 38.7486 69.8C39.1326 70.456 39.6286 70.952 40.2366 71.288C40.8606 71.624 41.5086 71.792 42.1806 71.792ZM52.6142 74V60.776H55.3502V74H52.6142ZM54.0062 59.024C53.4302 59.024 52.9422 58.84 52.5422 58.472C52.1422 58.104 51.9422 57.648 51.9422 57.104C51.9422 56.56 52.1422 56.104 52.5422 55.736C52.9422 55.352 53.4302 55.16 54.0062 55.16C54.5662 55.16 55.0462 55.352 55.4462 55.736C55.8622 56.104 56.0702 56.56 56.0702 57.104C56.0702 57.648 55.8622 58.104 55.4462 58.472C55.0462 58.84 54.5662 59.024 54.0062 59.024ZM59.0813 74V60.776H61.8173V63.536C62.0253 62.976 62.3533 62.48 62.8013 62.048C63.2493 61.6 63.7613 61.248 64.3372 60.992C64.9293 60.736 65.5213 60.608 66.1133 60.608C67.1213 60.608 68.0013 60.832 68.7533 61.28C69.5213 61.712 70.1133 62.344 70.5293 63.176C70.9613 64.008 71.1773 65.016 71.1773 66.2V74H68.4653V66.848C68.4653 65.648 68.1613 64.704 67.5533 64.016C66.9453 63.328 66.1453 62.984 65.1533 62.984C64.5133 62.984 63.9373 63.16 63.4253 63.512C62.9293 63.864 62.5373 64.352 62.2493 64.976C61.9613 65.584 61.8173 66.288 61.8173 67.088V74H59.0813ZM80.7872 80.456C79.7152 80.456 78.7232 80.288 77.8112 79.952C76.9152 79.616 76.1392 79.12 75.4832 78.464C74.8272 77.808 74.3312 77.008 73.9952 76.064L76.4912 75.056C76.8592 75.984 77.4352 76.712 78.2192 77.24C79.0032 77.784 79.8592 78.056 80.7872 78.056C81.5392 78.056 82.1952 77.912 82.7552 77.624C83.3312 77.336 83.7792 76.904 84.0992 76.328C84.4192 75.752 84.5792 75.04 84.5792 74.192V71.12C84.2112 72.064 83.6192 72.808 82.8032 73.352C81.9872 73.896 81.0352 74.168 79.9472 74.168C78.7952 74.168 77.7472 73.888 76.8032 73.328C75.8752 72.752 75.1312 71.96 74.5712 70.952C74.0272 69.928 73.7552 68.736 73.7552 67.376C73.7552 66.016 74.0272 64.832 74.5712 63.824C75.1312 62.8 75.8752 62.008 76.8032 61.448C77.7472 60.888 78.7952 60.608 79.9472 60.608C81.0352 60.608 81.9872 60.88 82.8032 61.424C83.6192 61.952 84.2112 62.688 84.5792 63.632V60.776H87.3392V74.144C87.3392 75.072 87.1872 75.92 86.8832 76.688C86.5952 77.456 86.1712 78.12 85.6112 78.68C85.0512 79.24 84.3632 79.672 83.5472 79.976C82.7472 80.296 81.8272 80.456 80.7872 80.456ZM80.5712 71.792C81.2592 71.792 81.9072 71.624 82.5152 71.288C83.1232 70.952 83.6192 70.456 84.0032 69.8C84.3872 69.128 84.5792 68.32 84.5792 67.376C84.5792 66.416 84.3872 65.616 84.0032 64.976C83.6192 64.32 83.1232 63.824 82.5152 63.488C81.9072 63.152 81.2592 62.984 80.5712 62.984C79.8992 62.984 79.2512 63.152 78.6272 63.488C78.0192 63.824 77.5232 64.32 77.1392 64.976C76.7552 65.616 76.5632 66.416 76.5632 67.376C76.5632 68.32 76.7552 69.128 77.1392 69.8C77.5232 70.456 78.0192 70.952 78.6272 71.288C79.2512 71.624 79.8992 71.792 80.5712 71.792ZM102.447 74.168C101.295 74.168 100.247 73.888 99.3032 73.328C98.3752 72.752 97.6312 71.96 97.0712 70.952C96.5272 69.928 96.2552 68.736 96.2552 67.376C96.2552 66.016 96.5272 64.832 97.0712 63.824C97.6312 62.8 98.3752 62.008 99.3032 61.448C100.247 60.888 101.295 60.608 102.447 60.608C103.535 60.608 104.487 60.88 105.303 61.424C106.119 61.952 106.711 62.688 107.079 63.632V60.776H109.839V74H108.615C108.167 74 107.799 73.856 107.511 73.568C107.223 73.28 107.079 72.912 107.079 72.464V71.12C106.711 72.064 106.119 72.808 105.303 73.352C104.487 73.896 103.535 74.168 102.447 74.168ZM103.071 71.792C103.759 71.792 104.407 71.624 105.015 71.288C105.623 70.952 106.119 70.456 106.503 69.8C106.887 69.128 107.079 68.32 107.079 67.376C107.079 66.416 106.887 65.616 106.503 64.976C106.119 64.32 105.623 63.824 105.015 63.488C104.407 63.152 103.759 62.984 103.071 62.984C102.399 62.984 101.751 63.152 101.127 63.488C100.519 63.824 100.023 64.32 99.6392 64.976C99.2552 65.616 99.0632 66.416 99.0632 67.376C99.0632 68.32 99.2552 69.128 99.6392 69.8C100.023 70.456 100.519 70.952 101.127 71.288C101.751 71.624 102.399 71.792 103.071 71.792ZM113.433 74V60.776H116.169V63.536C116.377 62.976 116.705 62.48 117.153 62.048C117.601 61.6 118.113 61.248 118.689 60.992C119.281 60.736 119.873 60.608 120.465 60.608C121.473 60.608 122.353 60.832 123.105 61.28C123.873 61.712 124.465 62.344 124.881 63.176C125.313 64.008 125.529 65.016 125.529 66.2V74H122.817V66.848C122.817 65.648 122.513 64.704 121.905 64.016C121.297 63.328 120.497 62.984 119.505 62.984C118.865 62.984 118.289 63.16 117.777 63.512C117.281 63.864 116.889 64.352 116.601 64.976C116.313 65.584 116.169 66.288 116.169 67.088V74H113.433ZM134.299 74.168C133.147 74.168 132.099 73.888 131.155 73.328C130.227 72.752 129.483 71.96 128.923 70.952C128.379 69.928 128.107 68.736 128.107 67.376C128.107 66.016 128.379 64.832 128.923 63.824C129.483 62.8 130.227 62.008 131.155 61.448C132.099 60.888 133.147 60.608 134.299 60.608C135.387 60.608 136.339 60.88 137.155 61.424C137.971 61.952 138.563 62.688 138.931 63.632V56.24H141.691V74H140.467C140.019 74 139.651 73.856 139.363 73.568C139.075 73.28 138.931 72.912 138.931 72.464V71.12C138.563 72.064 137.971 72.808 137.155 73.352C136.339 73.896 135.387 74.168 134.299 74.168ZM134.923 71.792C135.611 71.792 136.259 71.624 136.867 71.288C137.475 70.952 137.971 70.456 138.355 69.8C138.739 69.128 138.931 68.32 138.931 67.376C138.931 66.416 138.739 65.616 138.355 64.976C137.971 64.32 137.475 63.824 136.867 63.488C136.259 63.152 135.611 62.984 134.923 62.984C134.251 62.984 133.603 63.152 132.979 63.488C132.371 63.824 131.875 64.32 131.491 64.976C131.107 65.616 130.915 66.416 130.915 67.376C130.915 68.32 131.107 69.128 131.491 69.8C131.875 70.456 132.371 70.952 132.979 71.288C133.603 71.624 134.251 71.792 134.923 71.792ZM156.103 74.168C155.175 74.168 154.343 74.008 153.607 73.688C152.871 73.352 152.263 72.904 151.783 72.344C151.303 71.784 150.975 71.176 150.799 70.52L153.415 69.944C153.575 70.536 153.895 71.008 154.375 71.36C154.871 71.696 155.431 71.864 156.055 71.864C156.855 71.864 157.455 71.72 157.855 71.432C158.271 71.128 158.479 70.752 158.479 70.304C158.479 69.872 158.295 69.536 157.927 69.296C157.559 69.056 157.079 68.856 156.487 68.696C155.911 68.536 155.295 68.368 154.639 68.192C153.983 68.016 153.359 67.784 152.767 67.496C152.191 67.208 151.719 66.824 151.351 66.344C150.983 65.848 150.799 65.2 150.799 64.4C150.799 63.696 151.007 63.056 151.423 62.48C151.839 61.904 152.423 61.448 153.175 61.112C153.943 60.776 154.847 60.608 155.887 60.608C156.783 60.608 157.575 60.752 158.263 61.04C158.951 61.328 159.519 61.736 159.967 62.264C160.415 62.776 160.719 63.392 160.879 64.112L158.263 64.784C158.103 64.176 157.823 63.712 157.423 63.392C157.023 63.072 156.479 62.912 155.791 62.912C155.055 62.912 154.495 63.048 154.111 63.32C153.743 63.576 153.559 63.928 153.559 64.376C153.559 64.808 153.743 65.152 154.111 65.408C154.479 65.648 154.951 65.856 155.527 66.032C156.103 66.192 156.711 66.36 157.351 66.536C158.007 66.712 158.623 66.944 159.199 67.232C159.775 67.504 160.247 67.888 160.615 68.384C160.983 68.864 161.167 69.496 161.167 70.28C161.167 70.968 160.959 71.608 160.543 72.2C160.143 72.792 159.559 73.272 158.791 73.64C158.039 73.992 157.143 74.168 156.103 74.168ZM164.128 74V56.24H166.864V63.536C167.072 62.976 167.4 62.48 167.848 62.048C168.296 61.6 168.808 61.248 169.384 60.992C169.976 60.736 170.568 60.608 171.16 60.608C172.168 60.608 173.048 60.832 173.8 61.28C174.568 61.712 175.16 62.344 175.576 63.176C176.008 64.008 176.224 65.016 176.224 66.2V74H173.512V66.848C173.512 65.648 173.208 64.704 172.6 64.016C171.992 63.328 171.192 62.984 170.2 62.984C169.56 62.984 168.984 63.16 168.472 63.512C167.976 63.864 167.584 64.352 167.296 64.976C167.008 65.584 166.864 66.288 166.864 67.088V74H164.128ZM184.994 74.168C183.842 74.168 182.794 73.888 181.85 73.328C180.922 72.752 180.178 71.96 179.618 70.952C179.074 69.928 178.802 68.736 178.802 67.376C178.802 66.016 179.074 64.832 179.618 63.824C180.178 62.8 180.922 62.008 181.85 61.448C182.794 60.888 183.842 60.608 184.994 60.608C186.082 60.608 187.034 60.88 187.85 61.424C188.666 61.952 189.258 62.688 189.626 63.632V60.776H192.386V74H191.162C190.714 74 190.346 73.856 190.058 73.568C189.77 73.28 189.626 72.912 189.626 72.464V71.12C189.258 72.064 188.666 72.808 187.85 73.352C187.034 73.896 186.082 74.168 184.994 74.168ZM185.618 71.792C186.306 71.792 186.954 71.624 187.562 71.288C188.17 70.952 188.666 70.456 189.05 69.8C189.434 69.128 189.626 68.32 189.626 67.376C189.626 66.416 189.434 65.616 189.05 64.976C188.666 64.32 188.17 63.824 187.562 63.488C186.954 63.152 186.306 62.984 185.618 62.984C184.946 62.984 184.298 63.152 183.674 63.488C183.066 63.824 182.57 64.32 182.186 64.976C181.802 65.616 181.61 66.416 181.61 67.376C181.61 68.32 181.802 69.128 182.186 69.8C182.57 70.456 183.066 70.952 183.674 71.288C184.298 71.624 184.946 71.792 185.618 71.792ZM195.98 74V60.776H198.716V74H195.98ZM197.924 67.328L198.716 63.68C199.036 62.736 199.556 61.992 200.276 61.448C201.012 60.888 201.844 60.608 202.772 60.608V63.44C202.644 63.408 202.516 63.392 202.388 63.392C202.276 63.376 202.156 63.368 202.028 63.368C201.372 63.368 200.796 63.52 200.3 63.824C199.804 64.112 199.412 64.552 199.124 65.144C198.852 65.72 198.716 66.448 198.716 67.328H197.924ZM205.356 74V60.776H208.092V74H205.356ZM206.748 59.024C206.172 59.024 205.684 58.84 205.284 58.472C204.884 58.104 204.684 57.648 204.684 57.104C204.684 56.56 204.884 56.104 205.284 55.736C205.684 55.352 206.172 55.16 206.748 55.16C207.308 55.16 207.788 55.352 208.188 55.736C208.604 56.104 208.812 56.56 208.812 57.104C208.812 57.648 208.604 58.104 208.188 58.472C207.788 58.84 207.308 59.024 206.748 59.024ZM211.823 74V60.776H214.559V63.536C214.767 62.976 215.095 62.48 215.543 62.048C215.991 61.6 216.503 61.248 217.079 60.992C217.671 60.736 218.263 60.608 218.855 60.608C219.863 60.608 220.743 60.832 221.495 61.28C222.263 61.712 222.855 62.344 223.271 63.176C223.703 64.008 223.919 65.016 223.919 66.2V74H221.207V66.848C221.207 65.648 220.903 64.704 220.295 64.016C219.687 63.328 218.887 62.984 217.895 62.984C217.255 62.984 216.679 63.16 216.167 63.512C215.671 63.864 215.279 64.352 214.991 64.976C214.703 65.584 214.559 66.288 214.559 67.088V74H211.823ZM233.529 80.456C232.457 80.456 231.465 80.288 230.553 79.952C229.657 79.616 228.881 79.12 228.225 78.464C227.569 77.808 227.073 77.008 226.737 76.064L229.233 75.056C229.601 75.984 230.177 76.712 230.961 77.24C231.745 77.784 232.601 78.056 233.529 78.056C234.281 78.056 234.937 77.912 235.497 77.624C236.073 77.336 236.521 76.904 236.841 76.328C237.161 75.752 237.321 75.04 237.321 74.192V71.12C236.953 72.064 236.361 72.808 235.545 73.352C234.729 73.896 233.777 74.168 232.689 74.168C231.537 74.168 230.489 73.888 229.545 73.328C228.617 72.752 227.873 71.96 227.313 70.952C226.769 69.928 226.497 68.736 226.497 67.376C226.497 66.016 226.769 64.832 227.313 63.824C227.873 62.8 228.617 62.008 229.545 61.448C230.489 60.888 231.537 60.608 232.689 60.608C233.777 60.608 234.729 60.88 235.545 61.424C236.361 61.952 236.953 62.688 237.321 63.632V60.776H240.081V74.144C240.081 75.072 239.929 75.92 239.625 76.688C239.337 77.456 238.913 78.12 238.353 78.68C237.793 79.24 237.105 79.672 236.289 79.976C235.489 80.296 234.569 80.456 233.529 80.456ZM233.313 71.792C234.001 71.792 234.649 71.624 235.257 71.288C235.865 70.952 236.361 70.456 236.745 69.8C237.129 69.128 237.321 68.32 237.321 67.376C237.321 66.416 237.129 65.616 236.745 64.976C236.361 64.32 235.865 63.824 235.257 63.488C234.649 63.152 234.001 62.984 233.313 62.984C232.641 62.984 231.993 63.152 231.369 63.488C230.761 63.824 230.265 64.32 229.881 64.976C229.497 65.616 229.305 66.416 229.305 67.376C229.305 68.32 229.497 69.128 229.881 69.8C230.265 70.456 230.761 70.952 231.369 71.288C231.993 71.624 232.641 71.792 233.313 71.792ZM256.029 80.456C254.957 80.456 253.965 80.288 253.053 79.952C252.157 79.616 251.381 79.12 250.725 78.464C250.069 77.808 249.573 77.008 249.237 76.064L251.733 75.056C252.101 75.984 252.677 76.712 253.461 77.24C254.245 77.784 255.101 78.056 256.029 78.056C256.781 78.056 257.437 77.912 257.997 77.624C258.573 77.336 259.021 76.904 259.341 76.328C259.661 75.752 259.821 75.04 259.821 74.192V71.12C259.453 72.064 258.861 72.808 258.045 73.352C257.229 73.896 256.277 74.168 255.189 74.168C254.037 74.168 252.989 73.888 252.045 73.328C251.117 72.752 250.373 71.96 249.813 70.952C249.269 69.928 248.997 68.736 248.997 67.376C248.997 66.016 249.269 64.832 249.813 63.824C250.373 62.8 251.117 62.008 252.045 61.448C252.989 60.888 254.037 60.608 255.189 60.608C256.277 60.608 257.229 60.88 258.045 61.424C258.861 61.952 259.453 62.688 259.821 63.632V60.776H262.581V74.144C262.581 75.072 262.429 75.92 262.125 76.688C261.837 77.456 261.413 78.12 260.853 78.68C260.293 79.24 259.605 79.672 258.789 79.976C257.989 80.296 257.069 80.456 256.029 80.456ZM255.813 71.792C256.501 71.792 257.149 71.624 257.757 71.288C258.365 70.952 258.861 70.456 259.245 69.8C259.629 69.128 259.821 68.32 259.821 67.376C259.821 66.416 259.629 65.616 259.245 64.976C258.861 64.32 258.365 63.824 257.757 63.488C257.149 63.152 256.501 62.984 255.813 62.984C255.141 62.984 254.493 63.152 253.869 63.488C253.261 63.824 252.765 64.32 252.381 64.976C251.997 65.616 251.805 66.416 251.805 67.376C251.805 68.32 251.997 69.128 252.381 69.8C252.765 70.456 253.261 70.952 253.869 71.288C254.493 71.624 255.141 71.792 255.813 71.792ZM266.247 74V60.776H268.983V74H266.247ZM267.639 59.024C267.063 59.024 266.575 58.84 266.175 58.472C265.775 58.104 265.575 57.648 265.575 57.104C265.575 56.56 265.775 56.104 266.175 55.736C266.575 55.352 267.063 55.16 267.639 55.16C268.199 55.16 268.679 55.352 269.079 55.736C269.495 56.104 269.703 56.56 269.703 57.104C269.703 57.648 269.495 58.104 269.079 58.472C268.679 58.84 268.199 59.024 267.639 59.024ZM273.05 74V63.008H271.49V60.776H273.05V59.84C273.05 59.072 273.146 58.416 273.338 57.872C273.546 57.328 273.85 56.88 274.25 56.528C274.666 56.16 275.186 55.896 275.81 55.736C276.45 55.56 277.202 55.472 278.066 55.472V57.752C277.522 57.752 277.082 57.824 276.746 57.968C276.41 58.096 276.17 58.312 276.026 58.616C275.882 58.92 275.81 59.328 275.81 59.84V60.776H278.258V63.008H275.81V74H273.05ZM285.123 74.168C284.115 74.168 283.275 73.824 282.603 73.136C281.931 72.448 281.595 71.512 281.595 70.328V63.008H279.555V60.776H287.571V63.008H284.355V70.496C284.355 70.944 284.467 71.264 284.691 71.456C284.931 71.648 285.187 71.744 285.459 71.744C285.699 71.744 285.915 71.704 286.107 71.624C286.299 71.544 286.483 71.416 286.659 71.24L288.075 72.944C287.627 73.376 287.171 73.688 286.707 73.88C286.243 74.072 285.715 74.168 285.123 74.168ZM280.539 61.808V60.776C280.875 60.776 281.131 60.68 281.307 60.488C281.499 60.296 281.595 60.032 281.595 59.696V57.488H284.355V59.24C284.355 59.464 284.299 59.688 284.187 59.912C284.075 60.12 283.915 60.304 283.707 60.464C283.515 60.608 283.299 60.712 283.059 60.776L280.539 61.808ZM295.181 74.168C294.253 74.168 293.421 74.008 292.685 73.688C291.949 73.352 291.341 72.904 290.861 72.344C290.381 71.784 290.053 71.176 289.877 70.52L292.493 69.944C292.653 70.536 292.973 71.008 293.453 71.36C293.949 71.696 294.509 71.864 295.133 71.864C295.933 71.864 296.533 71.72 296.933 71.432C297.349 71.128 297.557 70.752 297.557 70.304C297.557 69.872 297.373 69.536 297.005 69.296C296.637 69.056 296.157 68.856 295.565 68.696C294.989 68.536 294.373 68.368 293.717 68.192C293.061 68.016 292.437 67.784 291.845 67.496C291.269 67.208 290.797 66.824 290.429 66.344C290.061 65.848 289.877 65.2 289.877 64.4C289.877 63.696 290.085 63.056 290.501 62.48C290.917 61.904 291.501 61.448 292.253 61.112C293.021 60.776 293.925 60.608 294.965 60.608C295.861 60.608 296.653 60.752 297.341 61.04C298.029 61.328 298.597 61.736 299.045 62.264C299.493 62.776 299.797 63.392 299.957 64.112L297.341 64.784C297.181 64.176 296.901 63.712 296.501 63.392C296.101 63.072 295.557 62.912 294.869 62.912C294.133 62.912 293.573 63.048 293.189 63.32C292.821 63.576 292.637 63.928 292.637 64.376C292.637 64.808 292.821 65.152 293.189 65.408C293.557 65.648 294.029 65.856 294.605 66.032C295.181 66.192 295.789 66.36 296.429 66.536C297.085 66.712 297.701 66.944 298.277 67.232C298.853 67.504 299.325 67.888 299.693 68.384C300.061 68.864 300.245 69.496 300.245 70.28C300.245 70.968 300.037 71.608 299.621 72.2C299.221 72.792 298.637 73.272 297.869 73.64C297.117 73.992 296.221 74.168 295.181 74.168ZM309.513 74V60.776H312.249V74H309.513ZM310.905 59.024C310.329 59.024 309.841 58.84 309.441 58.472C309.041 58.104 308.841 57.648 308.841 57.104C308.841 56.56 309.041 56.104 309.441 55.736C309.841 55.352 310.329 55.16 310.905 55.16C311.465 55.16 311.945 55.352 312.345 55.736C312.761 56.104 312.969 56.56 312.969 57.104C312.969 57.648 312.761 58.104 312.345 58.472C311.945 58.84 311.465 59.024 310.905 59.024ZM321.26 74.168C320.108 74.168 319.06 73.888 318.116 73.328C317.188 72.752 316.444 71.96 315.884 70.952C315.34 69.928 315.068 68.736 315.068 67.376C315.068 66.016 315.34 64.832 315.884 63.824C316.444 62.8 317.188 62.008 318.116 61.448C319.06 60.888 320.108 60.608 321.26 60.608C322.348 60.608 323.3 60.88 324.116 61.424C324.932 61.952 325.524 62.688 325.892 63.632V56.24H328.652V74H327.428C326.98 74 326.612 73.856 326.324 73.568C326.036 73.28 325.892 72.912 325.892 72.464V71.12C325.524 72.064 324.932 72.808 324.116 73.352C323.3 73.896 322.348 74.168 321.26 74.168ZM321.884 71.792C322.572 71.792 323.22 71.624 323.828 71.288C324.436 70.952 324.932 70.456 325.316 69.8C325.7 69.128 325.892 68.32 325.892 67.376C325.892 66.416 325.7 65.616 325.316 64.976C324.932 64.32 324.436 63.824 323.828 63.488C323.22 63.152 322.572 62.984 321.884 62.984C321.212 62.984 320.564 63.152 319.94 63.488C319.332 63.824 318.836 64.32 318.452 64.976C318.068 65.616 317.876 66.416 317.876 67.376C317.876 68.32 318.068 69.128 318.452 69.8C318.836 70.456 319.332 70.952 319.94 71.288C320.564 71.624 321.212 71.792 321.884 71.792ZM338.389 74.168C337.317 74.168 336.341 74 335.461 73.664C334.597 73.328 333.853 72.856 333.229 72.248C332.621 71.64 332.149 70.936 331.813 70.136C331.493 69.32 331.333 68.432 331.333 67.472C331.333 66.432 331.517 65.496 331.885 64.664C332.269 63.816 332.781 63.088 333.421 62.48C334.077 61.872 334.829 61.408 335.677 61.088C336.525 60.768 337.413 60.608 338.341 60.608C339.173 60.608 339.933 60.72 340.621 60.944C341.309 61.168 341.901 61.48 342.397 61.88C342.909 62.28 343.301 62.744 343.573 63.272C343.845 63.8 343.981 64.368 343.981 64.976C343.981 65.824 343.733 66.528 343.237 67.088C342.741 67.648 342.093 68.088 341.293 68.408C340.493 68.728 339.613 68.944 338.653 69.056C337.693 69.168 336.741 69.2 335.797 69.152C335.637 69.136 335.437 69.128 335.197 69.128C334.957 69.112 334.741 69.104 334.549 69.104C334.373 69.088 334.277 69.08 334.261 69.08C334.373 69.608 334.621 70.088 335.005 70.52C335.405 70.936 335.901 71.264 336.493 71.504C337.085 71.744 337.717 71.864 338.389 71.864C338.933 71.864 339.469 71.768 339.997 71.576C340.541 71.384 341.037 71.12 341.485 70.784C341.933 70.448 342.309 70.064 342.613 69.632L344.653 71.096C344.125 71.8 343.525 72.384 342.853 72.848C342.197 73.296 341.493 73.632 340.741 73.856C339.989 74.064 339.205 74.168 338.389 74.168ZM336.037 66.968C336.629 66.968 337.229 66.944 337.837 66.896C338.445 66.832 339.005 66.728 339.517 66.584C340.045 66.424 340.469 66.208 340.789 65.936C341.109 65.664 341.269 65.312 341.269 64.88C341.269 64.512 341.149 64.184 340.909 63.896C340.685 63.592 340.365 63.352 339.949 63.176C339.533 63 339.045 62.912 338.485 62.912C337.653 62.912 336.909 63.096 336.253 63.464C335.597 63.832 335.077 64.32 334.693 64.928C334.325 65.536 334.125 66.192 334.093 66.896C334.317 66.912 334.597 66.928 334.933 66.944C335.269 66.96 335.637 66.968 336.037 66.968ZM352.385 74.168C351.233 74.168 350.185 73.888 349.241 73.328C348.313 72.752 347.569 71.96 347.009 70.952C346.465 69.928 346.193 68.736 346.193 67.376C346.193 66.016 346.465 64.832 347.009 63.824C347.569 62.8 348.313 62.008 349.241 61.448C350.185 60.888 351.233 60.608 352.385 60.608C353.473 60.608 354.425 60.88 355.241 61.424C356.057 61.952 356.649 62.688 357.017 63.632V60.776H359.777V74H358.553C358.105 74 357.737 73.856 357.449 73.568C357.161 73.28 357.017 72.912 357.017 72.464V71.12C356.649 72.064 356.057 72.808 355.241 73.352C354.425 73.896 353.473 74.168 352.385 74.168ZM353.009 71.792C353.697 71.792 354.345 71.624 354.953 71.288C355.561 70.952 356.057 70.456 356.441 69.8C356.825 69.128 357.017 68.32 357.017 67.376C357.017 66.416 356.825 65.616 356.441 64.976C356.057 64.32 355.561 63.824 354.953 63.488C354.345 63.152 353.697 62.984 353.009 62.984C352.337 62.984 351.689 63.152 351.065 63.488C350.457 63.824 349.961 64.32 349.577 64.976C349.193 65.616 349.001 66.416 349.001 67.376C349.001 68.32 349.193 69.128 349.577 69.8C349.961 70.456 350.457 70.952 351.065 71.288C351.689 71.624 352.337 71.792 353.009 71.792ZM367.954 74.168C367.026 74.168 366.194 74.008 365.458 73.688C364.722 73.352 364.114 72.904 363.634 72.344C363.154 71.784 362.826 71.176 362.65 70.52L365.266 69.944C365.426 70.536 365.746 71.008 366.226 71.36C366.722 71.696 367.282 71.864 367.906 71.864C368.706 71.864 369.306 71.72 369.706 71.432C370.122 71.128 370.33 70.752 370.33 70.304C370.33 69.872 370.146 69.536 369.778 69.296C369.41 69.056 368.93 68.856 368.338 68.696C367.762 68.536 367.146 68.368 366.49 68.192C365.834 68.016 365.21 67.784 364.618 67.496C364.042 67.208 363.57 66.824 363.202 66.344C362.834 65.848 362.65 65.2 362.65 64.4C362.65 63.696 362.858 63.056 363.274 62.48C363.69 61.904 364.274 61.448 365.026 61.112C365.794 60.776 366.698 60.608 367.738 60.608C368.634 60.608 369.426 60.752 370.114 61.04C370.802 61.328 371.37 61.736 371.818 62.264C372.266 62.776 372.57 63.392 372.73 64.112L370.114 64.784C369.954 64.176 369.674 63.712 369.274 63.392C368.874 63.072 368.33 62.912 367.642 62.912C366.906 62.912 366.346 63.048 365.962 63.32C365.594 63.576 365.41 63.928 365.41 64.376C365.41 64.808 365.594 65.152 365.962 65.408C366.33 65.648 366.802 65.856 367.378 66.032C367.954 66.192 368.562 66.36 369.202 66.536C369.858 66.712 370.474 66.944 371.05 67.232C371.626 67.504 372.098 67.888 372.466 68.384C372.834 68.864 373.018 69.496 373.018 70.28C373.018 70.968 372.81 71.608 372.394 72.2C371.994 72.792 371.41 73.272 370.642 73.64C369.89 73.992 368.994 74.168 367.954 74.168Z" fill="#212121"/>
<path d="M31.6717 12.5716L26.8047 16.4538L25.8393 17.2294L19.6497 22.1648L13.3897 17.1986L12.4154 16.423L7.56166 12.5716H1.1958V39.6546H7.58811V20.8076L11.2824 23.5617L12.4374 24.421L18.1156 28.6513H21.1883L26.7386 24.5135L27.8892 23.6586L31.7158 20.8076V39.6546H38.1037V12.5716H31.6717Z" fill="#212121"/>
</svg>
