<svg width="45" height="55" viewBox="0 0 45 55" fill="none" xmlns="http://www.w3.org/2000/svg">
<g clip-path="url(#clip0_135_3908)">
<path d="M37.2008 23.407L31.2999 27.9359L30.1293 28.8406L22.6249 34.5982L15.0349 28.8047L13.8537 27.8999L7.96875 23.407H0.250488V55.0015H8.00082V33.0149L12.48 36.2278L13.8804 37.2302L20.7648 42.1652H24.4903L31.2197 37.3382L32.6148 36.3409L37.2543 33.0149V55.0015H44.9993V23.407H37.2008Z" fill="#212121"/>
<path d="M22.603 23.2464L22.3611 23.7466L22.1192 23.2464L12.9707 27.4083V55.1903H14.3626V28.2679L22.3611 24.6277L30.3613 28.2679V55.1903H31.7515V27.4083L22.603 23.2464Z" fill="#D39926"/>
<path d="M21.6257 24.0025C21.2253 22.2073 18.8198 21.5614 16.6988 20.9916C15.9594 20.7929 15.2609 20.6041 14.6766 20.3739C12.2779 19.4315 9.5589 18.3633 8.03245 15.7996C7.03753 14.1285 7.03923 11.9623 8.03415 10.283C8.93196 8.77088 10.4482 7.9279 12.2421 8.0223C15.5318 8.18129 18.181 10.9371 20.3377 16.4455C20.934 17.9692 21.4945 19.521 22.0022 21.0562C22.0908 21.3229 22.2271 21.616 22.3668 21.9191C22.653 22.5401 22.9477 23.1844 22.9971 23.8054L21.624 24.0009L21.6257 24.0025ZM11.9917 9.36875C10.4175 9.36875 9.59297 10.3658 9.24032 10.9603C8.48731 12.2273 8.48561 13.8619 9.23691 15.1222C10.5249 17.2852 12.9014 18.2176 15.1996 19.1218C15.709 19.3222 16.37 19.4994 17.0702 19.6882C18.1775 19.9847 19.411 20.3176 20.4706 20.8476C20.026 19.5392 19.5456 18.2242 19.0396 16.9274C17.1009 11.9739 14.8555 9.5029 12.174 9.37207L11.9934 9.3671L11.9917 9.36875Z" fill="#D39926"/>
<path d="M23.3565 24.0035L21.9834 23.8081C22.0328 23.1854 22.3292 22.5411 22.6154 21.9184C22.7534 21.617 22.8897 21.3255 22.9783 21.0589C23.4928 19.5087 24.0533 17.9569 24.6428 16.4482C26.7996 10.9398 29.4487 8.18395 32.7384 8.02496C34.5238 7.93553 36.0502 8.77354 36.9481 10.2889C37.943 11.9683 37.943 14.1312 36.9481 15.8023C35.4182 18.3693 32.7009 19.4359 30.3039 20.3765C29.7196 20.6068 29.0211 20.7939 28.2817 20.9926C26.1607 21.564 23.7552 22.2099 23.3531 24.0052L23.3565 24.0035ZM32.9888 9.36976L32.8082 9.37472C30.1284 9.5039 27.8831 11.9765 25.9443 16.9301C25.4418 18.2136 24.9613 19.5303 24.5133 20.8486C25.5729 20.3186 26.8064 19.9857 27.9137 19.6892C28.6139 19.5004 29.2749 19.3232 29.7843 19.1228C32.0808 18.2202 34.4557 17.2878 35.7453 15.1232C36.4966 13.8646 36.4966 12.2299 35.7436 10.963C35.3926 10.3668 34.5647 9.36976 32.9888 9.36976Z" fill="#D39926"/>
</g>
<defs>
<clipPath id="clip0_135_3908">
<rect width="45" height="55" fill="white"/>
</clipPath>
</defs>
</svg>
